<?xml version="1.0" encoding="UTF-8"?> <!-- Generator: Adobe Illustrator 21.1.0, SVG Export Plug-In . SVG Version: 6.00 Build 0) --> <svg xmlns="http://www.w3.org/2000/svg" xmlns:xlink="http://www.w3.org/1999/xlink" id="Layer_1" x="0px" y="0px" width="400px" height="130px" viewBox="0 0 400 130" style="enable-background:new 0 0 400 130;" xml:space="preserve"> <style type="text/css"> .st0{fill-rule:evenodd;clip-rule:evenodd;fill:#F1CA13;} .st1{fill-rule:evenodd;clip-rule:evenodd;fill:#971E21;} .st2{fill-rule:evenodd;clip-rule:evenodd;fill:#FFFFFF;} .st3{fill:none;stroke:#FFFFFF;stroke-width:2.8347;stroke-miterlimit:22.9256;} </style> <g> <polygon class="st0" points="155.4419,0.6315 170.62,23.3182 198.2422,15.863 179.9732,37.2386 195.2439,59.8672 168.7754,50.3915 150.5906,71.8322 152.501,44.5999 125.9919,35.2222 153.6412,27.8676 155.4419,0.6315 "></polygon> <path class="st1" d="M335.1975,97.1783c0,0.4086-0.2046,0.8004-0.6133,1.1751c-0.4089,0.3747-0.8688,0.7152-1.3798,1.0218 c-0.5108,0.3066-1.0046,0.5451-1.4817,0.7155c-0.4767,0.1701-0.7494,0.2552-0.8175,0.2552c-0.6132,0-1.0731-0.1533-1.3794-0.4599 c-0.3066-0.3066-0.5451-0.6471-0.7155-1.0218c-0.1704-0.3747-0.2724-0.7323-0.3066-1.0731c-0.0339-0.3405-0.051-0.579-0.051-0.7152 c0-0.2724,0.0681-0.6304,0.2043-1.0731c0.1362-0.4428,0.3408-0.8685,0.6132-1.2774c0.2724-0.4086,0.5961-0.7662,0.9708-1.0728 c0.3747-0.3067,0.8004-0.46,1.2774-0.46c0.8857,0,1.7202,0.3747,2.5035,1.1241C334.8056,95.0663,335.1975,96.02,335.1975,97.1783 L335.1975,97.1783z M367.1832,83.3824c0,3.0657-0.3575,5.7567-1.0731,8.0731c-0.7151,2.3163-1.5836,4.2408-2.6058,5.7738 c-1.0218,1.5327-2.0608,2.674-3.1167,3.4234c-1.056,0.7494-1.9245,1.1241-2.6058,1.1241c-0.9541,0-1.8735-0.4257-2.7592-1.2775 c-0.8859-0.8517-1.3287-1.6521-1.3287-2.4015c0-1.0898,0.4428-1.635,1.3287-1.635c0.3405,0,0.6813,0.1191,1.0218,0.3576 c0.3405,0.2385,0.6471,0.426,0.9198,0.5622c1.158-0.9537,2.265-2.5209,3.321-4.7007c1.056-2.1802,1.584-5.2801,1.584-9.2995 c0-1.635-0.1704-3.0996-0.5109-4.3942c-0.3408-1.2945-0.7323-2.3844-1.1751-3.27c-0.4428-0.886-0.9027-1.567-1.3797-2.044 c-0.477-0.477-0.8175-0.7155-1.0218-0.7155c-0.6814,0-1.3456,0.6813-1.993,2.044c-0.6471,1.3626-1.209,2.9124-1.686,4.6497 c-0.477,1.7373-0.8685,3.4405-1.1751,5.1097c-0.3065,1.6689-0.4598,2.8101-0.4598,3.4233c0.068,0.4086,0.1362,0.7834,0.2042,1.1242 c0.0681,0.3405,0.1363,0.6813,0.2043,1.0218c0.0681,0.3408,0.1023,0.6813,0.1023,1.0218c0,1.2945-0.4428,2.4529-1.3284,3.4746 c-0.8856,1.0218-1.7373,1.5327-2.5548,1.5327c-0.409,0-0.7324-0.2895-0.9708-0.8685c-0.2385-0.579-0.4257-1.3113-0.5623-2.1972 c-0.1362-0.8857-0.2552-1.8051-0.3576-2.7592c-0.102-0.9537-0.2214-1.8054-0.3576-2.5545c-0.5452-1.2264-1.2603-3.168-2.146-5.8252 c-0.8856-2.6568-1.8225-5.5012-2.8104-8.5327c-0.9876-3.0319-1.9074-5.9782-2.7591-8.8396 c-0.8514-2.8614-1.4818-5.1436-1.8903-6.847c-0.9541-3.6786-1.6864-6.8977-2.1972-9.6568 c-0.511-2.7591-0.9198-5.1778-1.2264-7.2556c-0.3066-2.0781-0.4938-3.8665-0.562-5.3653c-0.068-1.4988-0.1023-2.7591-0.1023-3.7809 c0-0.6132,0.2556-1.0899,0.7666-1.4307c0.5108-0.3405,0.9708-0.5109,1.3793-0.5109c0.6133,0,1.0561,0.1191,1.3287,0.3576 c0.2725,0.2385,0.46,0.7323,0.562,1.4817c0.1023,0.7494,0.2042,1.8396,0.3065,3.2704c0.1023,1.4304,0.2895,3.3381,0.5623,5.7225 c0.1362,1.1583,0.3915,2.7591,0.7662,4.8031c0.3747,2.0436,0.8688,4.3261,1.4817,6.8467c0.6132,2.521,1.2774,5.1607,1.993,7.9198 c0.7152,2.7591,1.4646,5.3992,2.2482,7.9198c0.7833,2.521,1.5669,4.8373,2.3503,6.949c0.7836,2.112,1.5159,3.7812,2.1972,5.0074 c0.6132-2.4525,1.3626-4.6666,2.2482-6.6424c0.7493-1.635,1.6692-3.1509,2.7591-4.5474c1.0899-1.3965,2.4186-2.0949,3.9856-2.0949 c0.6129,0,1.4304,0.2724,2.4525,0.8175c1.0219,0.5451,2.0269,1.4649,3.0145,2.7591c0.9879,1.2945,1.8396,2.9976,2.5548,5.1097 C366.8257,77.7279,367.1832,80.3166,367.1832,83.3824L367.1832,83.3824z M393.8685,107.704 c-0.2727-1.0902-0.579-2.1801-0.9199-3.2704c-0.3405-1.0899-0.6813-2.214-1.0218-3.372c-1.1583,1.4304-2.2653,2.8101-3.3213,4.1385 c-1.056,1.3284-2.0097,2.64-2.8614,3.9346c-0.8514,1.2942-1.5327,2.6397-2.0436,4.0366c-0.5109,1.3965-0.7665,2.8782-0.7665,4.4451 c0,2.112,0.5961,3.8494,1.7883,5.2116c1.1922,1.3626,2.5038,2.0439,3.9342,2.0439c1.5673,0,3.049-0.579,4.4455-1.7373 c1.3965-1.158,2.095-2.8273,2.095-5.0073c0-1.4308-0.0342-2.6229-0.1024-3.5767c-0.0681-0.9537-0.1533-1.7883-0.2552-2.5035 c-0.1023-0.7155-0.2386-1.3969-0.4089-2.0439C394.2603,109.3561,394.0728,108.5896,393.8685,107.704L393.8685,107.704z M397.3428,94.7255c0,0.7494-0.2724,1.2603-0.8175,1.533c-0.5448,0.2724-0.8175,0.6471-0.8175,1.1241 c-0.0681-0.0681,0.0681,0.3066,0.4089,1.1242c0.3405,0.8175,0.6471,1.6689,0.9195,2.5548 c0.4771,1.8393,0.9028,3.4405,1.2775,4.8028c0.3747,1.3626,0.6813,2.623,0.9198,3.7813c0.2385,1.158,0.4257,2.3163,0.5619,3.4743 c0.1365,1.1583,0.2047,2.4525,0.2047,3.8832c0,1.4307-0.2385,2.8957-0.7156,4.3945c-0.4767,1.4985-1.158,2.8272-2.0436,3.9852 c-0.8856,1.1583-1.9758,2.112-3.2704,2.8615c-1.2942,0.7494-2.7591,1.1241-4.3941,1.1241c-2.5206,0-4.5132-0.5109-5.9782-1.5331 c-1.4646-1.0218-2.5716-2.1798-3.321-3.4743c-0.7495-1.2945-1.2264-2.5719-1.4307-3.8323 c-0.2047-1.2603-0.3067-2.0949-0.3067-2.5035c0-2.5209,0.6472-5.0415,1.9417-7.5622c1.2945-2.5209,2.7249-4.8031,4.2918-6.847 c1.567-2.0436,2.9977-3.747,4.2922-5.1093c1.2945-1.3627,1.9416-2.1462,1.9416-2.3506l-1.1241-3.3723 c-0.6813,0.8175-1.2774,1.7202-1.7883,2.7081c-0.5109,0.988-1.056,1.9078-1.635,2.7592c-0.579,0.8517-1.2603,1.5669-2.0439,2.1459 c-0.7833,0.5794-1.7541,0.8689-2.9124,0.8689c-1.2261,0-2.4525-0.3747-3.6789-1.1241c-1.2262-0.7494-2.3163-1.8735-3.2701-3.3723 c-0.9536-1.4988-1.7202-3.3043-2.2992-5.4163c-0.579-2.1117-0.8685-4.5646-0.8685-7.3576c0-1.5669,0.2382-3.5257,0.7152-5.8762 c0.477-2.3503,1.2264-4.6156,2.2482-6.7957c1.0218-2.1798,2.2993-4.0365,3.8323-5.5692c1.5327-1.533,3.321-2.2992,5.365-2.2992 c1.158,0,2.2311,0.2043,3.219,0.6129c0.9879,0.4089,1.4818,0.9198,1.4818,1.533c0,0.5451-0.1023,0.9879-0.3066,1.3284 c-0.2043,0.3408-0.477,0.6813-0.8175,1.0218c-0.2043-0.1362-0.4257-0.2724-0.6642-0.4086 c-0.2385-0.1362-0.5623-0.2043-0.9708-0.2043c-1.4988,0-2.8444,0.6642-4.0365,1.9926c-1.1922,1.3284-2.1972,2.9634-3.0148,4.905 c-0.8175,1.9417-1.4475,3.9685-1.8907,6.0805c-0.4428,2.112-0.6642,3.9513-0.6642,5.5183c0,3.4747,0.5793,6.1143,1.7373,7.9198 c1.1584,1.8054,2.3845,2.7081,3.679,2.7081c0.6132,0,1.2774-0.4599,1.9926-1.3794c0.7155-0.9198,1.3968-1.942,2.0439-3.0658 c0.6471-1.1241,1.2093-2.1972,1.686-3.219c0.477-1.0222,0.7494-1.6354,0.8175-1.8397c0.1366-0.6813,0.2046-1.4646,0.2046-2.3502 c0-0.7495-0.0171-1.584-0.0513-2.5039c-0.0339-0.9198-0.051-1.8564-0.051-2.8101c0-1.7716,0.1361-3.2533,0.4089-4.4455 c0.2724-1.1922,0.9537-1.7883,2.0436-1.7883c1.0902,0,1.8735,0.3237,2.3506,0.9708c0.4767,0.6471,0.7152,1.4137,0.7152,2.2992 c0,0.6133-0.0172,1.3456-0.051,2.1973c-0.0343,0.8517-0.051,1.6692-0.051,2.4525c0,0.7836-0.0171,1.465-0.0513,2.044 c-0.0339,0.579-0.051,0.9366-0.051,1.0728c0,0.4089,0.051,1.005,0.1533,1.7886c0.1023,0.7833,0.2043,1.567,0.3066,2.3502 c0.1019,0.7836,0.2042,1.4988,0.3065,2.1459c0.1021,0.6474,0.1872,1.0731,0.2553,1.2774c0.0681,0.2047,0.1704,0.5109,0.3066,0.9199 c0.1362,0.4089,0.2727,0.7152,0.4089,0.9198c0.0681-0.1362,0.2043-0.2895,0.4086-0.4599c0.2046-0.1704,0.3747-0.3237,0.5109-0.4599 c0.3409,0.2043,0.6646,0.5961,0.9708,1.1751C397.1895,94.334,397.3428,94.6574,397.3428,94.7255L397.3428,94.7255z"></path> <path class="st1" d="M40.3655,88.9006c0,3.0657-0.5451,5.4672-1.635,7.2046s-2.691,3.3552-4.8031,4.8541 c-0.5448,0.3405-1.2942,0.7494-2.2483,1.2264c-0.9537,0.4766-2.0097,0.9194-3.1677,1.3284 c-1.1583,0.4086-2.3844,0.7494-3.6789,1.0218c-1.2945,0.2724-2.4868,0.409-3.5767,0.409c-3.0657,0-5.3821-0.3238-6.949-0.9708 c-1.5669-0.6474-2.3506-1.4139-2.3506-2.2996c0-0.9537,0.2727-1.737,0.8175-2.3502c0.5451-0.6132,1.0221-0.9537,1.4307-1.0222 l1.1241,0.8179c0.3408,0.3405,0.8175,0.6981,1.4308,1.0728c0.6132,0.3747,1.6011,0.5622,2.9634,0.5622 c1.2945,0,2.8614-0.2214,4.7007-0.6642c1.8396-0.4432,3.5938-1.1241,5.263-2.044c1.6693-0.9198,3.1-2.061,4.2922-3.4233 c1.1922-1.3626,1.7883-2.9295,1.7883-4.7008c0-1.5669-1.1755-3.0147-3.5257-4.3431c-2.3505-1.3287-6.0463-2.2315-11.0879-2.7082 c-2.5887-0.2043-5.1436-0.528-7.6642-0.9708c-2.521-0.4428-4.786-1.056-6.7957-1.8396c-2.0101-0.7833-3.628-1.7713-4.8541-2.9634 C0.6132,75.9053,0,74.4237,0,72.6524c0-1.7034,0.477-3.3385,1.4308-4.9054c0.9537-1.5669,2.1288-3.0144,3.5256-4.3432 c1.3965-1.3284,2.8443-2.5035,4.3431-3.5256c1.4988-1.0218,2.7592-1.8732,3.7809-2.5545c0.8175-0.477,1.9587-1.1073,3.4234-1.8906 c1.4649-0.7836,3.0319-1.533,4.7007-2.2482c1.6692-0.7152,3.3385-1.3284,5.0073-1.8393c1.6692-0.5112,3.0829-0.7665,4.2412-0.7665 c1.3626,0,2.2821,0.3747,2.7591,1.1241c0.4767,0.7494,0.7152,1.8054,0.7152,3.1677c0,1.1583-0.1362,2.3848-0.4086,3.679 c-0.2727,1.2945-0.5793,2.5548-0.9198,3.7813c-0.3405,1.2261-0.6642,2.2992-0.9708,3.219 c-0.3066,0.9195-0.528,1.5156-0.6642,1.7883c-0.2724,0.6129-0.579,1.0218-0.9199,1.2261c-0.3405,0.2046-0.579,0.3066-0.7152,0.3066 c-0.2727,0-0.4089-0.1704-0.4089-0.5109c0-0.2043,0.0513-0.5961,0.1533-1.1751c0.1023-0.5793,0.2385-1.2774,0.4089-2.0949 c0.17-0.8175,0.3066-1.7031,0.4086-2.6571c0.1023-0.9537,0.1533-1.9074,0.1533-2.8611c0-1.4988-0.0681-2.589-0.2043-3.2704 c-0.1362-0.6813-0.6813-1.0218-1.635-1.0218c-0.9537,0-2.2482,0.2556-3.8832,0.7665c-1.635,0.5109-3.3042,1.1409-5.0073,1.8903 c-1.8396,0.8175-3.628,1.8735-5.365,3.168c-1.7373,1.2945-3.2875,2.6229-4.6498,3.9856c-1.3626,1.3626-2.4696,2.6739-3.3214,3.9342 c-0.8514,1.2603-1.2774,2.2653-1.2774,3.0147c0,0.8175,0.5622,1.5841,1.6863,2.2992c1.1241,0.7152,2.5548,1.3455,4.2919,1.8906 c1.7373,0.5447,3.6618,1.0218,5.7739,1.4307c2.112,0.4086,4.1899,0.7152,6.2338,0.9194c1.7031,0.2046,3.5767,0.4771,5.6203,0.8175 c2.0439,0.3408,3.9517,0.8859,5.7229,1.635c1.7712,0.7494,3.27,1.7544,4.4964,3.0147 C39.7523,85.3068,40.3655,86.9251,40.3655,88.9006L40.3655,88.9006z M169.8038,81.645c0,1.4988-0.2046,2.9295-0.6132,4.2922 c-0.4089,1.3626-0.9537,2.5548-1.635,3.5766c-0.6813,1.0218-1.4817,1.8225-2.4015,2.4015 c-0.9198,0.579-1.9245,0.8685-3.0147,0.8685c-1.9074,0-3.4062-0.5448-4.4965-1.635c-1.0899-1.0898-1.9245-2.3502-2.5035-3.7809 c-0.579-1.4307-0.9537-2.8785-1.1241-4.3432c-0.1704-1.465-0.2556-2.5719-0.2556-3.3214c0-1.2261,0.1875-2.6058,0.5622-4.1385 c0.3747-1.5331,0.8856-2.9467,1.5327-4.2412c0.6474-1.2942,1.3798-2.3844,2.1972-3.27c0.8175-0.8856,1.6693-1.3284,2.5549-1.3284 c0.2043,0,0.528,0.0681,0.9708,0.2043c0.4428,0.1362,0.9027,0.3408,1.3794,0.6132c0.477,0.2724,0.9027,0.6132,1.2774,1.0218 c0.3747,0.4089,0.6303,0.8856,0.7665,1.4307c0.7494,0.0681,1.4988,0.3408,2.2482,0.8175c0.7494,0.477,1.158,0.8517,1.2261,1.1241 c0.5451,1.7712,0.9027,3.5428,1.0731,5.314C169.7187,79.0221,169.8038,80.487,169.8038,81.645L169.8038,81.645z M165.2051,79.8057 c0-1.0218-0.102-2.0949-0.3066-3.219c-0.2043-1.1242-0.6132-2.2654-1.2261-3.4234c-0.1365,0.0681-0.3066,0.102-0.5112,0.102 c-0.2724,0-0.4938-0.0339-0.6642-0.102c-0.1701-0.0681-0.3234-0.1023-0.4596-0.1023c-0.8178,0-1.4649,0.2214-1.9419,0.6642 c-0.4767,0.4428-0.8343,1.0221-1.0728,1.7373c-0.2385,0.7152-0.3918,1.4817-0.4599,2.2993 c-0.0681,0.8175-0.1023,1.6011-0.1023,2.3505c0,0.7494,0.0342,1.584,0.1023,2.5035c0.0681,0.9199,0.2214,1.7883,0.4599,2.6058 c0.2385,0.8175,0.5619,1.5159,0.9708,2.095c0.4086,0.5792,0.9537,0.8687,1.635,0.8687c0.6813,0,1.2603-0.3576,1.7373-1.0731 c0.4767-0.7151,0.8514-1.5498,1.1241-2.5035c0.2724-0.9541,0.4599-1.8907,0.5619-2.8105 C165.1541,80.8788,165.2051,80.2143,165.2051,79.8057L165.2051,79.8057z M149.0911,94.9301c0,0.4767-0.3579,0.8856-1.0731,1.2261 c-0.7155,0.3409-1.2432,0.5109-1.584,0.5109c-0.6813,0-1.2945-0.4428-1.8393-1.3284c-0.5451-0.8856-1.0222-1.9074-1.4307-3.0657 c-0.4089-1.158-0.7494-2.2654-1.0218-3.321c-0.2727-1.0561-0.477-1.7887-0.6132-2.1973c-0.2047-0.6813-0.477-1.4988-0.8175-2.4525 c-0.3408-0.954-0.6642-1.8735-0.9708-2.7591c-0.3066-0.8859-0.5622-1.6692-0.7665-2.3505 c-0.2043-0.6814-0.3066-1.0561-0.3066-1.1242c0-0.9537,0.1872-1.8393,0.5619-2.6568c0.3747-0.8175,0.8346-1.2264,1.3797-1.2264 c0.6132,0,1.2603,0.477,1.9416,1.4307s1.3455,2.163,1.9926,3.6276c0.6475,1.465,1.2435,3.0657,1.7883,4.803 c0.5451,1.7374,1.0221,3.3724,1.4308,4.9054c0.4089,1.5327,0.7326,2.8611,0.9708,3.9852 C148.9717,94.0613,149.0911,94.7255,149.0911,94.9301L149.0911,94.9301z M132.4907,87.2656c0,0.3408-0.153,0.6642-0.4596,0.9708 s-0.4941,0.6303-0.5622,0.9708c0,0.7495,0.1533,1.465,0.4599,2.146c0.3066,0.6813,0.4599,1.4988,0.4599,2.4529 c0,0.8856-0.2727,1.3283-0.8175,1.3283c-0.6813,0-1.1755,0.0852-1.4817,0.2553c-0.3066,0.1704-0.8346,0.3237-1.584,0.4599 c-0.4089,0-0.8517-0.3747-1.3284-1.1241c-0.2727-0.3405-0.5112-0.7494-0.7155-1.2261c0-0.0681-0.1872,0.0681-0.5619,0.4086 c-0.3747,0.3409-0.9879,0.7323-1.8396,1.1755c-0.8514,0.4428-2.0097,0.8514-3.4743,1.2261 c-1.4649,0.3747-3.3214,0.5622-5.5696,0.5622c-1.9074,0-3.5766-0.426-5.0074-1.2774c-1.4307-0.8517-2.6058-1.9587-3.5257-3.3214 c-0.9195-1.3626-1.6008-2.9124-2.0436-4.6498c-0.4428-1.737-0.6642-3.4914-0.6642-5.2626c0-1.635,0.1872-3.1852,0.5619-4.6498 c0.3747-1.4649,0.9027-2.7591,1.584-3.8832c0.6813-1.1241,1.5327-2.0268,2.5548-2.7081c1.0218-0.6813,2.214-1.0218,3.5766-1.0218 c1.2945,0,2.5887,0.4086,3.8832,1.2261s2.4525,1.7035,3.4743,2.6572c1.0221,0.9537,1.8568,1.8222,2.5038,2.6058 c0.6471,0.7833,0.9708,1.1751,0.9708,1.1751c-0.9537-5.314-1.8054-10.1167-2.5548-14.4089 c-0.3405-1.8393-0.6642-3.6618-0.9708-5.4673c-0.3066-1.8054-0.5961-3.4233-0.8685-4.8541 c-0.2727-1.4307-0.4941-2.64-0.6642-3.6276c-0.1704-0.9879-0.2556-1.584-0.2556-1.7887c-0.0681-0.4086-0.1362-1.1409-0.2043-2.1969 c-0.0681-1.056-0.1362-2.163-0.2043-3.3214c-0.0684-1.158-0.1365-2.214-0.2046-3.1677c-0.0681-0.9541-0.1362-1.5669-0.2043-1.8396 c-0.2043-0.6813-0.4599-1.5327-0.7665-2.5549c-0.3066-1.0218-0.4599-1.6008-0.4599-1.737c0-0.3408,0.1704-0.7665,0.5112-1.2774 c0.3405-0.5109,0.7833-0.7665,1.3284-0.7665c0.4086,0,0.7833,0.0342,1.1241,0.1023c0.3405,0.0681,0.6471,0.2724,0.9195,0.6129 c0.2727,0.3408,0.528,0.8688,0.7665,1.584c0.2385,0.7155,0.4599,1.7202,0.6642,3.0148c0.0681,0.6813,0.2727,1.9758,0.6132,3.8833 c0.3409,1.9074,0.6813,3.9856,1.0218,6.2338c0.3408,2.2482,0.6813,4.3941,1.0221,6.4381c0.3405,2.0436,0.579,3.5424,0.7152,4.4961 c0.3408,2.5891,0.8004,5.3992,1.3797,8.431c0.579,3.0315,1.1751,5.944,1.7883,8.7373c0.6132,2.793,1.2261,5.2627,1.8393,7.4089 c0.6132,2.1459,1.1584,3.5938,1.635,4.3428c0.1365,0.2727,0.4089,0.46,0.8175,0.5622 C132.0821,86.7037,132.3545,86.9251,132.4907,87.2656L132.4907,87.2656z M124.9288,89.3095 c-0.0681-0.2046-0.4941-1.0731-1.2774-2.6058c-0.7836-1.5331-1.7716-3.2023-2.9638-5.0074 c-1.1922-1.8054-2.5206-3.4237-3.9852-4.8541c-1.465-1.4307-2.8785-2.1462-4.2412-2.1462c-1.158,0-2.0949,0.8856-2.8101,2.6572 c-0.7152,1.7712-1.0731,3.8152-1.0731,6.1315c0,2.5887,0.7665,4.6665,2.2996,6.2334c1.5327,1.567,3.2529,2.3506,5.1607,2.3506 c1.635,0,3.3381-0.2727,5.1094-0.8175C122.9188,90.7061,124.1794,90.059,124.9288,89.3095L124.9288,89.3095z M100.8219,86.7547 c0,0.6132-0.4089,1.2603-1.2264,1.9416c-0.8175,0.6814-1.7712,1.3113-2.8614,1.8907c-1.0899,0.579-2.1969,1.0728-3.321,1.4817 c-1.1241,0.4086-1.9587,0.6132-2.5039,0.6132c-0.6132,0-1.2774-0.1704-1.9926-0.5112c-0.7155-0.3405-1.3965-0.7494-2.044-1.2261 c-0.6471-0.477-1.2093-0.9198-1.686-1.3283c-0.477-0.409-0.7836-0.6814-0.9198-0.8175c-0.2043,0.2043-0.5109,0.6129-0.9198,1.2261 c-0.4086,0.6133-0.9027,1.2774-1.4817,1.9929c-0.579,0.7152-1.1922,1.3456-1.8393,1.8903 c-0.6474,0.5452-1.3116,0.8175-1.9929,0.8175c-1.7712,0-3.3039-0.9537-4.5984-2.8611c-1.2945-1.9077-2.3673-4.0879-3.219-6.5404 c-0.8517-2.4525-1.4988-4.8199-1.9416-7.1023c-0.4428-2.2821-0.6642-3.8323-0.6642-4.6498c0-0.4767,0.2553-0.8685,0.7665-1.1751 c0.5109-0.3066,0.9027-0.4599,1.1751-0.4599c0.9537,0,1.6008,0.3237,1.9416,0.9708c0.3405,0.6471,0.5109,1.3455,0.5109,2.0949 c0,0.6132,0.1875,1.7031,0.5622,3.27c0.3747,1.5669,0.8343,3.168,1.3794,4.803c0.5451,1.635,1.1241,3.0829,1.7373,4.3432 c0.6132,1.2603,1.158,1.8906,1.635,1.8906c0.8856,0,1.6521-0.5622,2.2992-1.6864c0.6474-1.1241,1.1755-2.4183,1.584-3.8832 c0.4089-1.4646,0.7152-2.8611,0.9198-4.1898c0.2043-1.3284,0.3066-2.1969,0.3066-2.6058c0-0.0681,0.0168-0.2895,0.051-0.6642 c0.0339-0.3747,0.0852-0.7665,0.1533-1.1751c0.0681-0.4089,0.1191-0.7836,0.1533-1.1241c0.0339-0.3408,0.051-0.579,0.051-0.7155 c0-0.4767-0.102-0.8004-0.3066-0.9708c-0.2043-0.1701-0.3066-0.528-0.3066-1.0728c0-0.4089,0.2046-0.8007,0.6132-1.1755 c0.4089-0.3747,1.2945-0.5619,2.6572-0.5619c0.5448,0,0.9708,0.1533,1.2774,0.4599c0.3063,0.3066,0.5277,0.6642,0.6642,1.0728 c0.1362,0.4089,0.2214,0.8008,0.2553,1.1755c0.0342,0.3747,0.0513,0.63,0.0513,0.7661c0,0.0684-0.0342,0.5451-0.1023,1.4307 c-0.0681,0.8856-0.1191,1.8565-0.1533,2.9125c-0.0342,1.056-0.0852,2.061-0.1533,3.0147c-0.0681,0.9537-0.1023,1.533-0.1023,1.7373 c0,0.2043,0.1023,0.6132,0.3066,1.2261c0.2046,0.6132,0.4599,1.2435,0.7665,1.8906c0.3066,0.6471,0.6642,1.2265,1.0731,1.7373 c0.4086,0.5109,0.8514,0.7665,1.3284,0.7665c0.8175,0,1.584-0.1194,2.2992-0.3579c0.7155-0.2382,1.3965-0.511,2.044-0.8175 c0.6471-0.3066,1.2432-0.579,1.7883-0.8175c0.5451-0.2385,1.056-0.3576,1.5327-0.3576c0.6132,0,1.1754,0.1362,1.6863,0.4089 C100.5663,86.0053,100.8219,86.3458,100.8219,86.7547L100.8219,86.7547z M73.0669,57.528 c-0.8856,1.0218-2.1459,2.0268-3.7809,3.0148c-1.635,0.9876-3.2704,1.8903-4.9054,2.7078 c-1.635,0.8175-3.0658,1.5159-4.2919,2.0949c-1.2264,0.5793-1.8396,0.9708-1.8396,1.1755c0,0.2043,0.1362,0.8175,0.4089,1.8393 c0.2724,1.0218,0.5961,2.2311,0.9708,3.6276c0.3747,1.3968,0.7665,2.8443,1.1751,4.3431c0.4089,1.4989,0.7494,2.8276,1.0218,3.9856 c0.1365,0.6813,0.3066,1.5669,0.5113,2.6572c0.2043,1.0899,0.3914,2.1798,0.5619,3.27c0.1704,1.0899,0.3237,2.0608,0.4599,2.9125 c0.1362,0.8514,0.2043,1.3113,0.2043,1.3794c0,1.0222-0.1704,2.0781-0.5109,3.168c-0.3405,1.0899-0.8856,1.635-1.635,1.635 c-0.4089,0-0.7836-0.1704-1.1241-0.5109c-0.3409-0.3409-0.6471-0.7323-0.9198-1.1751c-0.2724-0.4428-0.4767-0.8689-0.6132-1.2775 c-0.1362-0.4089-0.2043-0.7156-0.2043-0.9198c0-0.1362,0.0171-0.3405,0.051-0.6132c0.0342-0.2724,0.0513-0.579,0.0513-0.9195 c0-1.2945-0.2043-3.168-0.6132-5.6206c-0.1362-0.7494-0.4089-1.9077-0.8175-3.4747c-0.4089-1.5669-0.8175-3.1677-1.2264-4.803 c-0.4767-1.9074-1.0218-3.9853-1.635-6.2335c-0.2724-0.9537-0.4428-1.4307-0.5109-1.4307c-0.477,0-1.2774,0.2895-2.4015,0.8685 c-1.1241,0.5793-2.4015,1.2945-3.8323,2.1462c-1.4304,0.8514-2.9292,1.7712-4.4961,2.7591 c-1.5669,0.9879-3.0319,1.9074-4.3945,2.7591c-1.3623,0.8514-2.5377,1.5669-3.5253,2.1459 c-0.9879,0.579-1.584,0.8689-1.7887,0.8689c-0.8856,0-1.6008-0.3066-2.1459-0.9199c-0.5451-0.6132-0.8175-1.2945-0.8175-2.0439 c0-0.4086,0.5622-1.0047,1.6863-1.7883c1.1241-0.7833,2.5206-1.6522,4.1899-2.6058c1.6689-0.9537,3.4743-1.9417,5.416-2.9635 c1.9416-1.0221,3.747-1.9416,5.4163-2.7595c1.6689-0.8175,3.0657-1.4985,4.1898-2.0436c1.1241-0.5451,1.686-0.8175,1.686-0.8175 c-0.6132-3.1338-1.1241-5.9272-1.5327-8.3797c-0.3408-2.112-0.6646-4.0537-0.9712-5.8249 c-0.3063-1.7716-0.4596-2.7253-0.4596-2.8615c0-0.8856,0.1872-1.5498,0.5619-1.9926c0.3747-0.4428,0.8004-0.6642,1.2774-0.6642 c0.7494,0,1.2264,0.5109,1.4307,1.5327c0.7494,3.6789,1.4478,6.949,2.0949,9.8104c0.6471,2.8614,1.2774,5.1778,1.8906,6.949 c0.6129-0.1362,1.6689-0.528,3.1677-1.1751c1.4988-0.6474,3.0657-1.3455,4.7008-2.0949c1.635-0.7494,3.1171-1.4136,4.4455-1.993 c1.3284-0.579,2.0949-0.8685,2.2992-0.8685c0.4089,0,0.6642,0.1362,0.7665,0.4086C72.8112,57.0852,72.9306,57.3237,73.0669,57.528 L73.0669,57.528z"></path> <path class="st1" d="M209.2599,73.8785c0-0.6813-0.8514-1.3794-2.5545-2.0949c-1.7035-0.7152-3.7132-1.0728-6.0295-1.0728 c-2.0436,0-3.5424,0.0681-4.4965,0.2043c-0.9537,0.1362-1.6008,0.2724-1.9416,0.4086c-0.1362,1.0902-0.2382,2.3845-0.3063,3.8833 c-0.0684,1.4988-0.1023,3.0319-0.1023,4.5987c0,1.635,0.051,3.2191,0.1533,4.7518c0.102,1.533,0.2214,2.8105,0.3576,3.8323 c0.9537-0.6133,2.2653-1.4479,3.9342-2.5036c1.6693-1.056,3.3214-2.2482,4.9564-3.577c1.635-1.3284,3.0486-2.7249,4.2408-4.1898 C208.6638,76.6548,209.2599,75.2411,209.2599,73.8785L209.2599,73.8785z M214.2676,74.1851c0,1.7712-0.4941,3.4747-1.482,5.1097 c-0.9876,1.635-2.1969,3.1509-3.6276,4.5474c-1.4307,1.3965-2.9976,2.691-4.7007,3.8833 c-1.7031,1.1922-3.2704,2.2311-4.7008,3.1167c-1.3626,0.9537-2.4868,1.7374-3.3723,2.3505 c-0.8856,0.6133-1.3284,1.0899-1.3284,1.4307c0,0.8856,0.102,2.1288,0.3063,3.73c0.2046,1.6008,0.4599,3.3381,0.7665,5.2116 c0.3066,1.8735,0.6132,3.7981,0.9198,5.7739c0.3066,1.9755,0.528,3.781,0.6642,5.4159c0,0.0681,0.051,0.3747,0.1533,0.9198 c0.1023,0.5451,0.2385,1.1584,0.4086,1.8393c0.1704,0.6813,0.3066,1.3117,0.4089,1.8907s0.1533,0.9369,0.1533,1.0731 c0,0.4767-0.0171,1.0047-0.051,1.584c-0.0342,0.579-0.1366,1.1241-0.3066,1.635c-0.1704,0.5109-0.426,0.9366-0.7665,1.2774 c-0.3405,0.3405-0.7836,0.511-1.3284,0.511c-0.7494,0-1.2945-0.3238-1.635-0.9708c-0.3409-0.6474-0.5113-1.2774-0.5113-1.8906 c0-0.1362,0.0171-0.2724,0.0513-0.4086c0.0339-0.1365,0.051-0.3066,0.051-0.5112c0-0.7494-0.2724-2.7591-0.8175-6.0292 c-0.5451-3.27-1.158-7.1704-1.8393-11.7007c-0.6813-4.5307-1.2945-9.4019-1.8396-14.6135 c-0.5448-5.2117-0.8175-10.1338-0.8175-14.7665c0-0.3408,0.0342-0.7326,0.1023-1.1754c0.0681-0.4428,0.102-0.8346,0.102-1.1751 c-0.681,0.0681-1.686,0.3747-3.0144,0.9198c-1.3284,0.5448-2.64,1.2093-3.9345,1.9926c-1.2942,0.7836-2.4354,1.6011-3.4233,2.4525 c-0.9879,0.8517-1.4817,1.6182-1.4817,2.2996h-0.7152c-0.2046,0-0.4599-0.1365-0.7665-0.4089 c-0.3066-0.2724-0.579-0.579-0.8175-0.9199c-0.2385-0.3405-0.4599-0.6813-0.6642-1.0218c-0.2046-0.3405-0.3066-0.579-0.3066-0.7152 c0-1.4307,0.8514-2.7762,2.5549-4.0365c1.7031-1.2606,3.8319-2.3848,6.3867-3.3723c2.5549-0.9879,5.365-1.7716,8.4307-2.3505 c3.0658-0.579,5.9614-0.8685,8.6864-0.8685c2.6571,0,4.8882,0.3066,6.6937,0.9195c1.8051,0.6132,3.2529,1.3455,4.3432,2.1972 c1.0899,0.8517,1.8732,1.7202,2.3502,2.6058C214.0291,72.8225,214.2676,73.5719,214.2676,74.1851L214.2676,74.1851z M240.0895,72.5501c0,0.477-0.2047,0.8685-0.6132,1.1751c-0.409,0.3066-0.8857,0.5622-1.4308,0.7666 c-0.5451,0.2043-1.0898,0.3576-1.635,0.4599c-0.5452,0.102-0.988,0.1533-1.3285,0.1533c-1.0221,0-1.7034-0.0681-2.0439-0.2046 c-0.3405-0.1362-0.6132-0.2043-0.8175-0.2043c-1.7031,0-3.0657,0.1362-4.0875,0.4089c-1.0221,0.2724-1.8225,0.7152-2.4016,1.3284 c-0.5789,0.6132-0.9537,1.3797-1.1241,2.2992c-0.1704,0.9198-0.2556,2.0268-0.2556,3.3214c0,2.1802,0.0852,3.9171,0.2556,5.2117 c0.1704,1.2945,0.3405,2.3506,0.5109,3.168c0.1704,0.8175,0.3405,1.4475,0.5109,1.8903c0.1704,0.4428,0.2556,0.8688,0.2556,1.2774 c0,0.5451-0.2895,1.1241-0.8688,1.7373c-0.579,0.6132-1.107,0.9198-1.5837,0.9198c-0.8179,0-1.5502-0.7323-2.1972-2.1973 c-0.6471-1.4646-1.1923-3.2019-1.635-5.2116c-0.4428-2.0097-0.8007-4.0026-1.0732-5.9782 c-0.2724-1.9759-0.4086-3.4747-0.4086-4.4965c0-1.158,0.102-2.2654,0.3066-3.3214c0.2043-1.0557,0.4767-1.9755,0.8175-2.7591 c0.3405-0.7833,0.7152-1.4136,1.1241-1.8903c0.4086-0.477,0.8175-0.7155,1.2261-0.7155c0.3408,0,0.6132,0.1194,0.8175,0.3576 c0.2043,0.2385,0.3747,0.5112,0.5109,0.8175c0.1365,0.3066,0.2895,0.5793,0.4599,0.8178c0.1705,0.2382,0.3918,0.3576,0.6642,0.3576 c0.6132,0,1.6011-0.3066,2.9638-0.9198c1.3623-0.6132,3.0315-0.9198,5.0074-0.9198c1.8393,0,3.219,0.0513,4.1385,0.1533 c0.9198,0.1023,1.8226,0.3237,2.7082,0.6642c0.2043,0.0685,0.4599,0.2214,0.7665,0.4599 C239.9361,71.7155,240.0895,72.0731,240.0895,72.5501L240.0895,72.5501z M254.3185,94.9301c0,0.4767-0.3579,0.8856-1.0732,1.2261 c-0.7155,0.3409-1.2432,0.5109-1.584,0.5109c-0.6813,0-1.2945-0.4428-1.8393-1.3284c-0.5451-0.8856-1.0221-1.9074-1.4307-3.0657 c-0.4089-1.158-0.7494-2.2654-1.0218-3.321c-0.2727-1.0561-0.4771-1.7887-0.6132-2.1973c-0.2047-0.6813-0.477-1.4988-0.8175-2.4525 c-0.3408-0.954-0.6642-1.8735-0.9708-2.7591c-0.3067-0.8859-0.5622-1.6692-0.7665-2.3505 c-0.2043-0.6814-0.3066-1.0561-0.3066-1.1242c0-0.9537,0.1872-1.8393,0.5619-2.6568c0.3747-0.8175,0.8346-1.2264,1.3797-1.2264 c0.6132,0,1.2603,0.477,1.9416,1.4307c0.6814,0.9537,1.3455,2.163,1.9926,3.6276c0.6474,1.465,1.2435,3.0657,1.7883,4.803 c0.5452,1.7374,1.0221,3.3724,1.4308,4.9054c0.4089,1.5327,0.7326,2.8611,0.9708,3.9852 C254.1991,94.0613,254.3185,94.7255,254.3185,94.9301L254.3185,94.9301z M250.9462,56.7105c0,0.1362-0.2385,0.4086-0.7155,0.8175 c-0.4767,0.4086-1.0389,0.8346-1.686,1.2774c-0.6474,0.4428-1.3116,0.8346-1.993,1.1751c-0.6809,0.3408-1.226,0.5109-1.635,0.5109 c-0.2724,0-0.63-0.0171-1.0728-0.051c-0.4429-0.0342-0.8857-0.1533-1.3288-0.3576c-0.4428-0.2046-0.8343-0.4941-1.1751-0.8688 c-0.3405-0.3747-0.5108-0.8685-0.5108-1.4817c0-0.9537,0.3405-1.8564,1.0218-2.7081c0.6813-0.8514,1.5669-1.2774,2.6571-1.2774 c0.2043,0,0.6642,0.0852,1.3794,0.2556c0.7155,0.1704,1.4478,0.3918,2.1972,0.6642c0.7494,0.2727,1.4136,0.579,1.9926,0.9198 C250.6567,55.9269,250.9462,56.3016,250.9462,56.7105L250.9462,56.7105z M288.0651,91.1488c0,0.409-0.1362,0.8175-0.4086,1.2264 c-0.2727,0.4086-0.5961,0.7833-0.9708,1.1241c-0.3748,0.3405-0.7836,0.63-1.2264,0.8685 c-0.4428,0.2385-0.8346,0.3576-1.1751,0.3576c-1.1584,0-2.64-0.2553-4.4455-0.7662c-1.8054-0.5112-3.2529-1.3116-4.3432-2.4015 c-1.1581-1.1584-2.1798-2.5378-3.0658-4.1389c-0.8856-1.6012-1.8735-3.9685-2.9634-7.1023 c-0.7494,2.9977-1.6179,5.9611-2.6058,8.8906c-0.9879,2.9296-2.572,5.6206-4.7521,8.0732 c-0.1362,0.1362-0.3405,0.2043-0.6129,0.2043c-0.477,0-0.9879-0.2382-1.533-0.7152c-0.5451-0.477-0.8175-0.9537-0.8175-1.4308 c0-0.477-0.051-1.584-0.1533-3.321c-0.1024-1.7373-0.2214-3.679-0.3576-5.8252c-0.1362-2.146-0.2556-4.326-0.3576-6.5401 c-0.1024-2.214-0.1533-4.0366-0.1533-5.4673c0-0.6813,0.0339-1.584,0.102-2.7081c0.0681-1.1242,0.2727-2.095,0.6133-2.9125 c0.068-0.1362,0.3237-0.4086,0.7665-0.8175c0.4428-0.4086,0.9366-0.6132,1.4817-0.6132c0.477,0,0.7495,0.3066,0.8175,0.9198 c0.0681,0.6132,0.1023,1.2945,0.1023,2.0439v16.1462c0,0.3405,0.051,0.8175,0.1533,1.4308 c0.102,0.6129,0.2553,1.0557,0.4599,1.3284c0.7494-1.635,1.4475-3.5599,2.095-5.7738c0.6471-2.214,1.277-4.326,1.8903-6.3358 c0.6132-2.0098,1.2264-3.7128,1.8396-5.1097c0.6129-1.3965,1.2261-2.0949,1.8393-2.0949c0.6813,0,1.2264,0.1362,1.635,0.4089 c0.4089,0.2724,0.7494,0.8175,1.0221,1.635c0.3405,1.9755,0.6129,3.7299,0.8175,5.2626c0.2043,1.5331,0.4596,2.9128,0.7662,4.1389 c0.3066,1.2265,0.7494,2.3673,1.3288,3.4233c0.579,1.056,1.3794,2.0268,2.4012,2.9124c0.954,0.886,2.0268,1.533,3.219,1.9417 c1.1923,0.4089,2.2315,0.6132,3.1171,0.6132c0.4086,0,0.8514-0.0852,1.3283-0.2553c0.4771-0.1704,0.8175-0.2556,1.0219-0.2556 c0.2727,0,0.528,0.2385,0.7665,0.7152C287.946,90.7061,288.0651,91.0126,288.0651,91.1488L288.0651,91.1488z M323.1385,57.528 c-0.8857,1.0218-2.1459,2.0268-3.7809,3.0148c-1.6351,0.9876-3.2704,1.8903-4.9054,2.7078 c-1.6349,0.8175-3.0657,1.5159-4.2918,2.0949c-1.2264,0.5793-1.8397,0.9708-1.8397,1.1755c0,0.2043,0.1362,0.8175,0.4089,1.8393 c0.2723,1.0218,0.5961,2.2311,0.9708,3.6276c0.3747,1.3968,0.7665,2.8443,1.1751,4.3431c0.4089,1.4989,0.7494,2.8276,1.0218,3.9856 c0.1365,0.6813,0.3066,1.5669,0.5112,2.6572c0.2043,1.0899,0.3914,2.1798,0.5619,3.27c0.1704,1.0899,0.3237,2.0608,0.4599,2.9125 c0.1362,0.8514,0.2043,1.3113,0.2043,1.3794c0,1.0222-0.1704,2.0781-0.5109,3.168c-0.3405,1.0899-0.8856,1.635-1.635,1.635 c-0.4089,0-0.7836-0.1704-1.1241-0.5109c-0.3408-0.3409-0.6471-0.7323-0.9198-1.1751c-0.2724-0.4428-0.4767-0.8689-0.6132-1.2775 c-0.1362-0.4089-0.2043-0.7156-0.2043-0.9198c0-0.1362,0.0171-0.3405,0.051-0.6132c0.0342-0.2724,0.0513-0.579,0.0513-0.9195 c0-1.2945-0.2043-3.168-0.6132-5.6206c-0.1362-0.7494-0.4089-1.9077-0.8176-3.4747c-0.4089-1.5669-0.8175-3.1677-1.2264-4.803 c-0.4767-1.9074-1.0218-3.9853-1.635-6.2335c-0.2724-0.9537-0.4429-1.4307-0.5109-1.4307c-0.4771,0-1.2774,0.2895-2.4015,0.8685 c-1.1241,0.5793-2.4016,1.2945-3.8323,2.1462c-1.4304,0.8514-2.9292,1.7712-4.4961,2.7591 c-1.5669,0.9879-3.0319,1.9074-4.3945,2.7591c-1.3623,0.8514-2.5378,1.5669-3.5253,2.1459c-0.988,0.579-1.584,0.8689-1.7887,0.8689 c-0.8856,0-1.6008-0.3066-2.1459-0.9199c-0.5451-0.6132-0.8175-1.2945-0.8175-2.0439c0-0.4086,0.5622-1.0047,1.6863-1.7883 c1.1241-0.7833,2.5206-1.6522,4.1899-2.6058c1.6688-0.9537,3.4743-1.9417,5.416-2.9635c1.9416-1.0221,3.747-1.9416,5.4162-2.7595 c1.6689-0.8175,3.0657-1.4985,4.1898-2.0436s1.686-0.8175,1.686-0.8175c-0.6132-3.1338-1.1241-5.9272-1.5327-8.3797 c-0.3408-2.112-0.6646-4.0537-0.9711-5.8249c-0.3063-1.7716-0.4596-2.7253-0.4596-2.8615c0-0.8856,0.1871-1.5498,0.5619-1.9926 s0.8004-0.6642,1.2774-0.6642c0.7494,0,1.2264,0.5109,1.4307,1.5327c0.7495,3.6789,1.4478,6.949,2.0949,9.8104 c0.6472,2.8614,1.2775,5.1778,1.8906,6.949c0.6129-0.1362,1.6689-0.528,3.1678-1.1751c1.4988-0.6474,3.0657-1.3455,4.7007-2.0949 c1.6351-0.7494,3.1171-1.4136,4.4455-1.993c1.3285-0.579,2.0949-0.8685,2.2993-0.8685c0.4089,0,0.6642,0.1362,0.7665,0.4086 C322.8828,57.0852,323.0023,57.3237,323.1385,57.528L323.1385,57.528z"></path> <path class="st2" d="M158.5137,30.7176c1.6961,0,3.0711,1.375,3.0711,3.0711s-1.375,3.0711-3.0711,3.0711 c-1.6961,0-3.0711-1.375-3.0711-3.0711S156.8177,30.7176,158.5137,30.7176L158.5137,30.7176z"></path> <path class="st2" d="M168.5643,28.1833c1.6961,0,3.0711,1.375,3.0711,3.0711c0,1.6961-1.375,3.0711-3.0711,3.0711 c-1.6961,0-3.0711-1.375-3.0711-3.0711C165.4932,29.5583,166.8683,28.1833,168.5643,28.1833L168.5643,28.1833z"></path> <path class="st3" d="M156.0018,40.3932c5.2821,8.5998,18.9111,5.4226,18.6132-5.5344"></path> </g> </svg> 